HIERARCHY
ROOT hip
{
	OFFSET 0.000000 0.000000 0.000000 
	CHANNELS 6 Xposition Yposition Zposition Xrotation Zrotation Yrotation
	JOINT abdomen
	{
		OFFSET 0.000000 3.402643 0.000000 
		CHANNELS 3 Xrotation Zrotation Yrotation
		JOINT chest
		{
			OFFSET 0.000000 8.438565 -0.680529 
			CHANNELS 3 Xrotation Zrotation Yrotation
			JOINT neck
			{
				OFFSET 0.000000 10.207942 -0.272212 
				CHANNELS 3 Xrotation Zrotation Yrotation
				JOINT head
				{
					OFFSET 0.000000 3.130431 0.000000 
					CHANNELS 3 Xrotation Zrotation Yrotation
					End Site
					{
						OFFSET 0.000000 3.130435 0.000000 
					}
				}
			}
			JOINT lCollar
			{
				OFFSET 3.470700 6.669187 -0.816635 
				CHANNELS 3 Yrotation Zrotation Xrotation
				JOINT lShldr
				{
					OFFSET 3.198488 0.000000 0.000000 
					CHANNELS 3 Zrotation Yrotation Xrotation
					JOINT lForeArm
					{
						OFFSET 10.139888 0.000000 0.000000 
						CHANNELS 3 Yrotation Zrotation Xrotation
						JOINT lHand
						{
							OFFSET 8.370511 0.000000 0.000000 
							CHANNELS 3 Zrotation Yrotation Xrotation
							End Site
							{
								OFFSET 4.083176 0.000000 0.000000 
							}
						}
					}
				}
			}
			JOINT rCollar
			{
				OFFSET -3.470700 6.669187 -0.816635 
				CHANNELS 3 Yrotation Zrotation Xrotation
				JOINT rShldr
				{
					OFFSET -3.198488 0.000000 0.000000 
					CHANNELS 3 Zrotation Yrotation Xrotation
					JOINT rForeArm
					{
						OFFSET -10.139888 0.000000 0.000000 
						CHANNELS 3 Yrotation Zrotation Xrotation
						JOINT rHand
						{
							OFFSET -8.370511 0.000000 0.000000 
							CHANNELS 3 Zrotation Yrotation Xrotation
							End Site
							{
								OFFSET -4.083176 0.000000 0.000000 
							}
						}
					}
				}
			}
		}
	}
	JOINT lThigh
	{
		OFFSET 5.308129 -1.633274 1.361059 
		CHANNELS 3 Xrotation Zrotation Yrotation
		JOINT lShin
		{
			OFFSET -2.041588 -20.007561 0.000000 
			CHANNELS 3 Xrotation Zrotation Yrotation
			JOINT lFoot
			{
				OFFSET 0.000000 -19.190928 -1.224953 
				CHANNELS 3 Xrotation Yrotation Zrotation
				End Site
				{
					OFFSET 0.000000 -2.449906 4.627600 
				}
			}
		}
	}
	JOINT rThigh
	{
		OFFSET -5.308129 -1.633274 1.361059 
		CHANNELS 3 Xrotation Zrotation Yrotation
		JOINT rShin
		{
			OFFSET 2.041588 -20.007561 0.000000 
			CHANNELS 3 Xrotation Zrotation Yrotation
			JOINT rFoot
			{
				OFFSET 0.000000 -19.190928 -1.224953 
				CHANNELS 3 Xrotation Yrotation Zrotation
				End Site
				{
					OFFSET 0.000000 -2.449906 4.627600 
				}
			}
		}
	}
}
MOTION
Frames: 18
Frame Time: 0.033333
-0.223329 20.876324 -0.398809 2.998047 5.263672 119.638672 40.330688 -8.910778 -16.999336 -19.404297 4.951172 -3.251953 51.063168 8.107644 2.471410 -60.947266 0.820312 -16.611328 2.000000 -2.000000 0.000000 -80.888672 -2.783203 -31.708982 -111.699257 1.090935 -2.817652 34.645672 47.341885 8.609455 -2.000000 2.000000 0.000000 21.787109 -14.677733 -11.232942 141.695038 -2.801087 -2.174601 -20.051136 -21.253298 32.031651 -80.732651 9.600088 8.137020 41.514225 -4.027335 -3.567255 8.227645 -11.089459 -0.989082 -73.199295 -5.068171 0.993340 23.190374 4.878064 2.042122 28.170965 4.711906 1.248567 
-0.233534 20.828762 -0.398103 2.998047 5.263672 119.814453 40.157089 -8.840009 -17.137444 -19.404297 4.951172 -3.427734 51.063168 8.107644 2.471410 -60.322262 -2.001953 -8.926123 2.000000 -2.000000 0.000000 -82.265625 -0.957031 -31.738283 -112.039734 1.288180 -2.790199 34.413548 47.353401 8.116660 -2.000000 2.000000 0.000000 21.894531 -11.064453 -9.552654 141.694748 -2.811404 -2.165424 -21.944433 -19.153397 33.851990 -80.532288 9.598446 8.329630 41.672596 -3.885699 -3.519684 8.207286 -11.284138 -0.683566 -73.204208 -5.253853 1.124381 23.382113 4.949732 1.887149 28.297089 4.826487 1.284868 
-0.265313 20.787100 -0.392133 3.164063 5.605469 120.206032 40.156567 -8.753563 -17.289013 -19.404297 4.951172 -3.427734 51.063168 8.107644 2.471410 -57.929688 -4.853515 1.318359 2.000000 -2.000000 0.000000 -83.271484 -0.107422 -31.171881 -111.347435 1.081751 -2.807525 33.043037 47.512226 7.227119 -2.000000 2.000000 0.000000 23.056641 -1.376953 -5.205078 139.060638 -2.728302 -2.248587 -26.904633 -14.397883 38.063122 -80.195427 9.228739 8.297353 41.329262 -3.890545 -3.484005 8.354485 -11.285281 -0.872844 -73.233719 -5.605062 1.372409 23.375156 5.034018 1.902126 28.144503 4.744185 1.263280 
-0.310947 20.806543 -0.383442 3.525391 5.781250 120.957039 40.313461 -9.278764 -16.392626 -18.867189 5.117188 -2.998047 51.063168 8.107644 2.471410 -55.595703 -8.408202 11.044922 2.000000 -2.000000 0.000000 -83.642578 -1.640625 -29.277344 -109.942780 0.835195 -2.841930 32.140430 47.609623 6.376158 -2.000000 2.000000 0.000000 25.107424 9.150390 -0.633213 135.187714 -2.622868 -2.378894 -33.049675 -8.792666 42.846924 -79.634178 8.329160 8.533179 40.631790 -4.051542 -3.425247 8.877386 -11.638529 -0.833232 -72.510796 -6.093381 1.062856 23.893103 4.672865 2.187688 27.462091 4.326276 1.470515 
-0.362727 20.833969 -0.374578 3.886719 6.123047 121.719200 41.110367 -10.469722 -14.344855 -17.421877 5.742188 -1.484375 51.063168 8.107644 2.471410 -54.560547 -10.625000 15.751955 2.000000 -2.000000 0.000000 -82.958984 -4.794922 -25.703123 -108.886871 0.983693 -2.811431 30.290140 48.098503 5.464927 -2.000000 2.000000 0.000000 27.167967 15.107421 1.425781 130.279373 -2.285164 -2.466825 -38.203892 -3.984030 45.354866 -78.743401 7.088593 8.551570 39.386478 -4.129086 -3.398190 9.509507 -11.311515 -0.756322 -71.862839 -7.353150 1.537503 23.015177 4.790564 1.505838 28.289415 4.330856 1.732819 
-0.412930 20.920759 -0.368109 4.228516 6.464844 122.471809 42.037266 -12.126077 -11.798393 -15.634766 6.357422 0.263672 51.063168 8.107644 2.471410 -53.701176 -11.054687 16.474609 2.000000 -2.000000 0.000000 -82.812500 -9.560547 -21.329746 -107.471176 0.934382 -2.818350 28.438883 48.267883 4.203941 -2.000000 2.000000 0.000000 28.310549 17.705080 1.418987 123.247803 -2.032510 -2.774474 -43.093254 -1.198596 46.469570 -77.645462 5.634933 9.232725 37.786655 -4.224195 -3.287812 10.804893 -11.694557 -0.088240 -70.938393 -8.729758 1.083915 21.771692 4.760513 2.011091 29.026958 4.428325 1.712035 
-0.453849 20.971092 -0.366581 4.589844 6.806641 123.408203 42.704845 -13.486713 -9.421048 -14.013672 6.787110 1.817560 51.063168 8.107644 2.471410 -52.460938 -11.162108 17.119141 2.000000 -2.000000 0.000000 -82.636719 -13.798828 -17.756233 -106.064713 0.876452 -2.805211 27.190372 48.251877 3.477073 -2.000000 2.000000 0.000000 29.853518 19.638674 1.116564 114.465347 -1.523440 -2.950038 -48.600952 0.692010 46.965431 -76.548813 4.218302 9.312066 36.356686 -4.176999 -3.136022 11.490946 -11.803861 -0.009510 -70.050041 -10.155565 1.263322 20.369864 4.833871 1.402263 29.665339 4.323340 2.167212 
-0.477763 21.025827 -0.372565 4.960938 7.353516 124.229759 43.123890 -14.356923 -8.192895 -12.939453 7.080079 2.744141 51.063168 8.107644 2.471410 -50.263676 -10.810546 18.974611 2.000000 -2.000000 0.000000 -82.988281 -16.132813 -15.022243 -105.010056 0.837455 -2.802948 26.509054 48.281982 3.081657 -2.000000 2.000000 0.000000 31.464840 21.621096 1.279297 107.767891 -1.442060 -3.004001 -53.049168 2.396913 46.552570 -75.639847 3.153723 9.449471 35.495586 -4.235360 -3.073972 11.873145 -11.890822 0.397621 -69.643677 -11.191304 0.897817 20.541143 4.803319 1.898068 29.387899 4.051459 1.855781 
-0.490418 20.983591 -0.395255 5.292969 7.509767 124.815735 43.052261 -14.704989 -7.575357 -12.568359 7.226563 3.009041 51.063168 8.107644 2.471410 -47.753906 -10.654296 21.687649 2.000000 -2.000000 0.000000 -83.027344 -17.744141 -13.362349 -104.307228 0.807642 -2.810997 26.324251 47.846931 2.962167 -2.000000 2.000000 0.000000 32.822262 22.363281 1.748047 104.966141 -1.323377 -3.026472 -56.795639 5.160599 45.480824 -74.914948 2.460083 9.448779 35.148060 -4.352689 -3.100198 12.138271 -11.832970 0.368851 -69.271759 -12.069670 0.939898 20.542913 4.823046 1.716476 29.327316 3.982029 2.334973 
-0.496311 20.935684 -0.434068 5.498047 7.871094 125.401726 43.205223 -15.095679 -7.234742 -12.216797 7.373047 3.292268 51.063168 8.107644 2.471410 -45.400387 -10.283201 23.601772 2.000000 -2.000000 0.000000 -82.998047 -19.140627 -12.275391 -103.789391 0.788708 -2.800121 27.409145 47.241489 3.829724 -2.000000 2.000000 0.000000 33.974606 21.679688 1.210937 104.263329 -1.293565 -3.034527 -60.011135 7.660121 43.950802 -74.564682 1.981977 9.154078 34.997551 -4.382351 -3.086387 12.438964 -12.001580 0.344888 -69.103470 -12.616386 1.276586 21.245016 4.871894 1.461602 28.868956 4.174024 2.765236 
-0.485838 20.874353 -0.476865 5.673828 8.017769 125.615959 43.177948 -15.272764 -6.931270 -12.041017 7.363282 3.310547 51.063168 8.107644 2.471410 -43.935551 -9.853516 24.638672 2.000000 -2.000000 0.000000 -82.568359 -20.107424 -11.699219 -103.613617 0.778959 -2.799555 27.925797 46.620777 4.463690 -2.000000 2.000000 0.000000 34.375000 21.279297 0.478516 103.736298 -1.263753 -3.042581 -60.856575 9.005692 43.136627 -74.367218 1.581013 9.421648 35.147724 -4.352663 -3.109888 12.224052 -12.069882 0.506056 -69.057671 -12.939064 0.798005 21.766964 4.784851 2.004778 28.675964 4.353494 2.613296 
-0.449408 20.810017 -0.511495 5.859375 8.212891 125.655685 43.200283 -15.394464 -7.052724 -11.855468 7.353516 3.341094 51.063168 8.107644 2.471410 -42.998051 -9.218749 24.404299 2.000000 -2.000000 0.000000 -82.207031 -20.722656 -11.448767 -103.086205 0.583723 -3.130365 29.422905 46.283283 5.316788 -2.000000 2.000000 0.000000 34.960941 21.630861 0.657899 103.043182 -1.059018 -3.030740 -60.210960 8.676731 43.480515 -74.543770 1.580795 9.417216 35.505322 -4.327883 -3.112169 12.109129 -11.979136 0.548248 -69.236244 -13.125196 0.751565 22.301065 4.763935 2.045166 28.605213 4.250575 2.214416 
-0.377427 20.721491 -0.525826 5.859375 8.212891 125.655685 43.016586 -15.410365 -7.037866 -11.855468 7.353516 3.165313 51.063168 8.107644 2.471410 -42.421879 -8.544921 23.369144 2.000000 -2.000000 0.000000 -81.767578 -21.005857 -11.409750 -102.563591 0.740112 -2.963531 29.758310 46.527962 5.429254 -2.000000 2.000000 0.000000 34.775391 22.080078 0.589608 102.330116 -1.205257 -3.039198 -58.185692 7.272517 44.450047 -74.736404 1.777535 9.274571 36.217503 -4.300941 -3.133711 11.705460 -12.077742 0.330816 -69.585312 -12.938951 0.667778 23.014782 4.716190 1.929624 28.174458 4.379851 2.429167 
-0.281213 20.643150 -0.525768 5.859375 8.378906 125.323685 43.044792 -15.321836 -7.189579 -11.855468 7.353516 3.165313 51.063168 8.107644 2.471410 -42.197269 -7.685546 21.367188 2.000000 -2.000000 0.000000 -81.250000 -20.634766 -11.507347 -102.212036 0.730363 -2.962966 30.569157 46.836273 5.740165 -2.000000 2.000000 0.000000 34.990234 22.558594 1.259766 101.788170 -1.361089 -2.881981 -55.625439 5.686718 45.410835 -75.116913 2.314762 9.057384 37.085636 -4.263381 -3.222873 11.281737 -12.181707 0.219664 -69.945038 -12.753280 0.602219 23.888506 4.676160 2.013350 27.676313 4.392584 2.414965 
-0.178820 20.530441 -0.525348 5.859375 8.378906 124.972122 42.888271 -15.242415 -7.344736 -12.041017 7.363282 2.958984 51.063168 8.107644 2.471410 -42.138672 -6.835937 18.690247 2.000000 -2.000000 0.000000 -81.083984 -20.478516 -11.546387 -101.684708 0.701115 -2.961269 31.397612 47.145790 6.509582 -2.000000 2.000000 0.000000 34.746094 22.988281 1.566313 101.471252 -0.999958 -3.037102 -53.154350 4.014867 46.176075 -75.458984 2.634813 9.330911 37.955154 -4.212619 -3.288110 10.606165 -12.420523 0.144029 -70.501625 -12.226033 0.680849 24.949165 4.647972 2.055069 27.501814 4.586527 2.045543 
-0.070745 20.416576 -0.524579 5.673828 8.378906 124.591270 42.507366 -15.061666 -7.323636 -12.373047 7.558595 2.794253 51.063168 8.107644 2.471410 -42.431644 -5.947265 15.507814 2.000000 -2.000000 0.000000 -80.996094 -19.882813 -11.683007 -101.157768 0.495816 -2.959137 32.740421 47.609737 7.166388 -2.000000 2.000000 0.000000 34.912113 23.212889 2.152287 100.939560 -0.979739 -2.879483 -51.147408 2.318367 46.681915 -76.001328 3.153590 9.461779 39.021763 -4.031288 -3.335191 10.429436 -12.094983 0.275796 -70.858772 -11.875374 0.466330 25.657022 4.626439 2.138048 27.207952 4.365477 1.992774 
0.042512 20.260588 -0.523469 5.507813 8.398438 124.042969 42.295834 -14.720510 -7.229244 -12.734375 7.558595 2.745425 51.063168 8.107644 2.471410 -42.734375 -5.214843 12.128907 2.000000 -2.000000 0.000000 -81.025391 -19.746092 -11.533203 -100.630157 0.486631 -2.948826 32.900032 48.074566 7.182146 -2.000000 2.000000 0.000000 34.951172 23.281252 3.115234 100.417038 -0.775161 -3.033879 -48.948322 0.813610 47.029861 -76.553139 3.533736 8.991196 40.088650 -3.963254 -3.370178 9.672758 -12.085091 -0.112089 -71.407890 -11.522694 0.806889 26.533381 4.646920 1.738308 26.570770 4.698208 2.112621 
0.160455 20.115248 -0.522034 5.498047 8.222656 123.673264 41.888351 -14.175695 -7.144895 -13.251953 7.763673 2.548829 51.063168 8.107644 2.471410 -43.378910 -4.472656 8.583984 2.000000 -2.000000 0.000000 -81.474609 -19.326172 -11.575498 -99.941536 0.272308 -3.102574 33.624981 48.128231 7.870515 -2.000000 2.000000 0.000000 35.439453 22.402344 4.075989 100.065483 -0.765411 -3.033315 -49.362221 -0.651403 45.653553 -77.084137 4.061502 9.101201 41.122036 -4.031795 -3.516608 9.216226 -12.154551 0.022570 -72.133270 -11.005774 0.898745 27.942375 4.603216 1.989971 26.247408 4.976017 1.618181 
